<svg viewBox="0 0 200 200" xmlns="http://www.w3.org/2000/svg">
  <!-- 메인 리조트 건물 -->
  <path d="M40 140 L40 70 L100 50 L160 70 L160 140" 
        fill="#2563eb" 
        stroke="#1e40af" 
        stroke-width="3"/>
  
  <!-- 출입구 -->
  <path d="M80 140 L80 120 Q100 115 120 120 L120 140" 
        fill="#bfdbfe"/>
        
  <!-- 야자수 1 -->
  <rect x="18" y="100" width="4" height="30" fill="#854d0e"/>
  <path d="M20 110 C10 100 15 90 20 85 C25 90 30 100 20 110" 
        fill="#15803d"/>
  
  <!-- 야자수 2 -->
  <rect x="178" y="100" width="4" height="30" fill="#854d0e"/>
  <path d="M180 110 C170 100 175 90 180 85 C185 90 190 100 180 110" 
        fill="#15803d"/>
  
  <!-- 코인 -->
  <circle cx="100" cy="70" r="35" fill="#fbbf24" stroke="#b45309" stroke-width="4"/>
  <text x="100" y="77.5" font-family="Arial" font-size="35" fill="#1e40af" text-anchor="middle" font-weight="bold">CR</text>
  
</svg>